<svg version="1.1"
   xmlns="http://www.w3.org/2000/svg" xmlns:xlink="http://www.w3.org/1999/xlink"
   width="37.7298px" height="37.7298px" viewBox="0 0 37.7298 37.7298" class="gripdots-svg" role="presentation">
<g>
  <circle fill="#E9E2CD" cx="10.7484" cy="2.6318" r="2.6318"/>
  <circle fill="#E9E2CD" cx="18.8649" cy="2.6318" r="2.6318"/>
  <circle fill="#E9E2CD" cx="26.9814" cy="2.6318" r="2.6318"/>
  <circle fill="#E9E2CD" cx="2.6318" cy="10.7485" r="2.6318"/>
  <circle fill="#E9E2CD" cx="2.6318" cy="18.8647" r="2.6318"/>
  <circle fill="#E9E2CD" cx="2.6318" cy="26.9814" r="2.6318"/>
  <circle fill="#E9E2CD" cx="10.7484" cy="10.7485" r="2.6318"/>
  <circle fill="#E9E2CD" cx="10.7484" cy="18.8647" r="2.6318"/>
  <circle fill="#E9E2CD" cx="10.7484" cy="26.9814" r="2.6318"/>
  <circle fill="#E9E2CD" cx="10.7484" cy="35.0981" r="2.6318"/>
  <circle fill="#E9E2CD" cx="18.8649" cy="10.7485" r="2.6318"/>
  <circle fill="#E9E2CD" cx="18.8649" cy="26.9814" r="2.6318"/>
  <circle fill="#E9E2CD" cx="26.8649" cy="26.9814" r="2.6318"/>
  <circle fill="#E9E2CD" cx="18.8649" cy="35.0981" r="2.6318"/>
  <circle fill="#E9E2CD" cx="26.9814" cy="10.7485" r="2.6318"/>
  <circle fill="#E9E2CD" cx="26.9814" cy="18.8647" r="2.6318"/>
  <circle fill="#E9E2CD" cx="26.9814" cy="35.0981" r="2.6318"/>
  <circle fill="#E9E2CD" cx="35.098" cy="10.7485" r="2.6318"/>
  <circle fill="#E9E2CD" cx="35.098" cy="18.8647" r="2.6318"/>
  <circle fill="#E9E2CD" cx="35.098" cy="26.9814" r="2.6318"/>
</g>
</svg>
