<svg width="244px" height="230px" viewBox="0 0 244 230" version="1.1" xmlns="http://www.w3.org/2000/svg" xmlns:xlink="http://www.w3.org/1999/xlink" class="app-logo-svg" alt="Access Lint" aria-labelledby="title">
  <title id="title">Access Lint</title>
  <g stroke="none" fill-rule="evenodd">
    <g>
      <g transform="translate(2.000000, 0.000000)">
        <path d="M50.8,0.6 L5.3,0.6 C2.3,0.6 0,3.5 0,6.5 L0,54.1 L0,57.4 L0,105 C0,108 2.3,110.5 5.3,110.5 L50.8,110.5 C53.8,110.5 56,107.9 56,105 L56,57.4 L56,54.1 L56,6.5 C56,3.5 53.8,0.6 50.8,0.6 L50.8,0.6 Z M13,87.1 C10.2,87.1 7.9,84.8 7.9,82 C7.9,79.2 10.2,76.9 13,76.9 C15.8,76.9 18.1,79.2 18.1,82 C18.1,84.8 15.8,87.1 13,87.1 L13,87.1 Z M18.1,96.5 C18.1,99.3 15.8,101.6 13,101.6 C10.2,101.6 7.9,99.3 7.9,96.5 C7.9,93.7 10.2,91.4 13,91.4 C15.8,91.4 18.1,93.7 18.1,96.5 L18.1,96.5 Z M13,72.9 C10.2,72.9 7.9,70.6 7.9,67.8 C7.9,65 10.2,62.7 13,62.7 C15.8,62.7 18.1,65 18.1,67.8 C18.1,70.6 15.8,72.9 13,72.9 L13,72.9 Z M3,54.6 L3,6.5 C3,5.3 4.1,4.6 5.3,4.6 L50.8,4.6 C52,4.6 53,5.3 53,6.5 L53,54.6 L3,54.6 L3,54.6 Z M18.1,14.9 C18.1,17.7 15.8,20 13,20 C10.2,20 7.9,17.7 7.9,14.9 C7.9,12.1 10.2,9.8 13,9.8 C15.8,9.8 18.1,12.1 18.1,14.9 L18.1,14.9 Z"></path>
        <path d="M112,0.6 L66.5,0.6 C63.5,0.6 61.1,3.5 61.1,6.5 L61.1,54.1 L61.1,57.4 L61.1,105 C61.1,108 63.5,110.5 66.5,110.5 L112,110.5 C115,110.5 117.1,107.9 117.1,105 L117.1,57.4 L117.1,54.1 L117.1,6.5 C117,3.5 115,0.6 112,0.6 L112,0.6 Z M109.5,68.2 C109.5,71 107.2,73.3 104.4,73.3 C101.6,73.3 99.3,71 99.3,68.2 C99.3,65.4 101.6,63.1 104.4,63.1 C107.2,63.1 109.5,65.3 109.5,68.2 L109.5,68.2 Z M79.3,82 C79.3,84.8 77,87.1 74.2,87.1 C71.4,87.1 69.1,84.8 69.1,82 C69.1,79.2 71.4,76.9 74.2,76.9 C77,76.9 79.3,79.2 79.3,82 L79.3,82 Z M64,54.6 L64,6.5 C64,5.3 65.3,4.6 66.4,4.6 L112,4.6 C113.2,4.6 114.1,5.3 114.1,6.5 L114.1,54.6 L64,54.6 L64,54.6 Z M109.5,29.4 C109.5,32.2 107.2,34.5 104.4,34.5 C101.6,34.5 99.3,32.2 99.3,29.4 C99.3,26.6 101.6,24.3 104.4,24.3 C107.2,24.3 109.5,26.6 109.5,29.4 L109.5,29.4 Z M109.5,15.3 C109.5,18.1 107.2,20.4 104.4,20.4 C101.6,20.4 99.3,18.1 99.3,15.3 C99.3,12.5 101.6,10.2 104.4,10.2 C107.2,10.2 109.5,12.4 109.5,15.3 L109.5,15.3 Z M79.3,43.6 C79.3,46.4 77,48.7 74.2,48.7 C71.4,48.7 69.1,46.4 69.1,43.6 C69.1,40.8 71.4,38.5 74.2,38.5 C77,38.5 79.3,40.8 79.3,43.6 L79.3,43.6 Z M109.5,43.2 C109.5,46 107.2,48.3 104.4,48.3 C101.6,48.3 99.3,46 99.3,43.2 C99.3,40.4 101.6,38.1 104.4,38.1 C107.2,38.1 109.5,40.4 109.5,43.2 L109.5,43.2 Z"></path>
        <path d="M173.1,0.6 L127.6,0.6 C124.6,0.6 122,3.5 122,6.5 L122,54.1 L122,57.4 L122,105 C122,108 124.6,110.5 127.6,110.5 L173.1,110.5 C176.1,110.5 178,107.9 178,105 L178,57.4 L178,54.1 L178,6.5 C178,3.5 176.1,0.6 173.1,0.6 L173.1,0.6 Z M165.6,73.3 C162.8,73.3 160.5,71 160.5,68.2 C160.5,65.4 162.8,63.1 165.6,63.1 C168.4,63.1 170.7,65.4 170.7,68.2 C170.7,71 168.5,73.3 165.6,73.3 L165.6,73.3 Z M170.7,82.3 C170.7,85.1 168.4,87.4 165.6,87.4 C162.8,87.4 160.5,85.1 160.5,82.3 C160.5,79.5 162.8,77.2 165.6,77.2 C168.4,77.2 170.7,79.5 170.7,82.3 L170.7,82.3 Z M135.5,72.9 C132.7,72.9 130.4,70.6 130.4,67.8 C130.4,65 132.7,62.7 135.5,62.7 C138.3,62.7 140.6,65 140.6,67.8 C140.6,70.6 138.3,72.9 135.5,72.9 L135.5,72.9 Z M140.6,96.5 C140.6,99.3 138.3,101.6 135.5,101.6 C132.7,101.6 130.4,99.3 130.4,96.5 C130.4,93.7 132.7,91.4 135.5,91.4 C138.3,91.4 140.6,93.7 140.6,96.5 L140.6,96.5 Z M125,54.6 L125,6.5 C125,5.3 126.4,4.6 127.6,4.6 L173.1,4.6 C174.3,4.6 175,5.3 175,6.5 L175,54.6 L125,54.6 L125,54.6 Z M140.6,14.9 C140.6,17.7 138.3,20 135.5,20 C132.7,20 130.4,17.7 130.4,14.9 C130.4,12.1 132.7,9.8 135.5,9.8 C138.3,9.8 140.6,12.1 140.6,14.9 L140.6,14.9 Z M170.8,14.9 C170.8,17.7 168.5,20 165.7,20 C162.9,20 160.6,17.7 160.6,14.9 C160.6,12.1 162.9,9.8 165.7,9.8 C168.5,9.8 170.8,12.1 170.8,14.9 L170.8,14.9 Z M170.8,29.5 C170.8,32.3 168.5,34.6 165.7,34.6 C162.9,34.6 160.6,32.3 160.6,29.5 C160.6,26.7 162.9,24.4 165.7,24.4 C168.5,24.4 170.8,26.7 170.8,29.5 L170.8,29.5 Z"></path>
        <path d="M234.2,0.6 L188.7,0.6 C185.7,0.6 183,3.5 183,6.5 L183,54.1 L183,57.4 L183,105 C183,108 185.7,110.5 188.7,110.5 L234.2,110.5 C237.2,110.5 240,107.9 240,105 L240,57.4 L240,54.1 L240,6.5 C240,3.5 237.2,0.6 234.2,0.6 L234.2,0.6 Z M226.9,73.3 C224.1,73.3 221.8,71 221.8,68.2 C221.8,65.4 224.1,63.1 226.9,63.1 C229.7,63.1 232,65.4 232,68.2 C232,71 229.7,73.3 226.9,73.3 L226.9,73.3 Z M232,82.3 C232,85.1 229.7,87.4 226.9,87.4 C224.1,87.4 221.8,85.1 221.8,82.3 C221.8,79.5 224.1,77.2 226.9,77.2 C229.7,77.2 232,79.5 232,82.3 L232,82.3 Z M196.7,87.1 C193.9,87.1 191.6,84.8 191.6,82 C191.6,79.2 193.9,76.9 196.7,76.9 C199.5,76.9 201.8,79.2 201.8,82 C201.8,84.8 199.5,87.1 196.7,87.1 L196.7,87.1 Z M201.8,96.5 C201.8,99.3 199.5,101.6 196.7,101.6 C193.9,101.6 191.6,99.3 191.6,96.5 C191.6,93.7 193.9,91.4 196.7,91.4 C199.5,91.4 201.8,93.7 201.8,96.5 L201.8,96.5 Z M187,54.6 L187,6.5 C187,5.3 187.5,4.6 188.7,4.6 L234.2,4.6 C235.4,4.6 236,5.3 236,6.5 L236,54.6 L187,54.6 L187,54.6 Z M201.8,29.5 C201.8,32.3 199.5,34.6 196.7,34.6 C193.9,34.6 191.6,32.3 191.6,29.5 C191.6,26.7 193.9,24.4 196.7,24.4 C199.5,24.4 201.8,26.7 201.8,29.5 L201.8,29.5 Z M201.8,43.2 C201.8,46 199.5,48.3 196.7,48.3 C193.9,48.3 191.6,46 191.6,43.2 C191.6,40.4 193.9,38.1 196.7,38.1 C199.5,38.1 201.8,40.4 201.8,43.2 L201.8,43.2 Z M232,14.9 C232,17.7 229.7,20 226.9,20 C224.1,20 221.8,17.7 221.8,14.9 C221.8,12.1 224.1,9.8 226.9,9.8 C229.7,9.8 232,12.1 232,14.9 L232,14.9 Z" ></path>
      </g>
      <g id="Group" transform="translate(0.000000, 123.000000)">
        <path d="M19.1,16.9 C21,16.7 22.4,16.4 23.3,16 C24.8,15.4 25.5,14.4 25.5,13 C25.5,11.4 24.9,10.2 23.8,9.6 C22.7,9 21,8.7 18.8,8.7 C16.3,8.7 14.5,9.3 13.5,10.5 C12.8,11.4 12.3,12.6 12,14.1 L2,14.1 C2.2,10.6 3.2,7.8 4.9,5.5 C7.7,2 12.4,0.2 19.1,0.2 C23.5,0.2 27.4,1.1 30.7,2.8 C34.1,4.5 35.8,7.8 35.8,12.6 L35.8,30.8 C35.8,32.1 35.8,33.6 35.9,35.4 C36,36.8 36.2,37.7 36.5,38.2 C36.8,38.7 37.4,39.1 38,39.4 L38,40.9 L26.7,40.9 C26.4,40.1 26.2,39.3 26,38.6 C25.9,37.9 25.8,37.1 25.7,36.2 C24.3,37.8 22.6,39.1 20.7,40.2 C18.4,41.5 15.9,42.1 13.1,42.1 C9.5,42.1 6.5,41.1 4.1,39 C1.7,36.9 0.6,34 0.6,30.3 C0.6,25.4 2.5,21.9 6.3,19.7 C8.4,18.5 11.4,17.7 15.5,17.1 L19.1,16.9 L19.1,16.9 Z M25.5,21.7 C24.8,22.1 24.2,22.4 23.5,22.7 C22.8,23 21.9,23.2 20.7,23.4 L18.3,23.8 C16.1,24.2 14.5,24.7 13.5,25.2 C11.9,26.1 11,27.6 11,29.6 C11,31.4 11.5,32.7 12.5,33.4 C13.5,34.1 14.7,34.6 16.1,34.6 C18.4,34.6 20.5,33.9 22.4,32.6 C24.3,31.3 25.3,28.9 25.4,25.4 L25.4,21.7 L25.5,21.7 Z" ></path>
        <g transform="translate(41.000000, 0.000000)" >
          <path d="M26.2,15.5 C26,14 25.5,12.7 24.7,11.5 C23.5,9.9 21.7,9.1 19.3,9.1 C15.8,9.1 13.4,10.8 12.1,14.3 C11.4,16.1 11.1,18.6 11.1,21.7 C11.1,24.6 11.4,27 12.1,28.7 C13.3,32 15.7,33.7 19.1,33.7 C21.5,33.7 23.3,33 24.3,31.7 C25.3,30.4 25.9,28.7 26.2,26.6 L36.8,26.6 C36.6,29.8 35.4,32.8 33.4,35.6 C30.1,40.1 25.3,42.4 18.9,42.4 C12.5,42.4 7.8,40.5 4.8,36.7 C1.8,32.9 0.3,28 0.3,21.9 C0.3,15.1 2,9.8 5.3,6 C8.6,2.2 13.2,0.3 19.1,0.3 C24.1,0.3 28.2,1.4 31.4,3.7 C34.6,5.9 36.5,9.9 37,15.6 L26.2,15.6 L26.2,15.5 Z"></path>
          <path d="M67.7,15.5 C67.5,14 67,12.7 66.2,11.5 C65,9.9 63.2,9.1 60.8,9.1 C57.3,9.1 54.9,10.8 53.6,14.3 C52.9,16.1 52.6,18.6 52.6,21.7 C52.6,24.6 52.9,27 53.6,28.7 C54.8,32 57.2,33.7 60.6,33.7 C63,33.7 64.8,33 65.8,31.7 C66.8,30.4 67.4,28.7 67.7,26.6 L78.3,26.6 C78.1,29.8 76.9,32.8 74.9,35.6 C71.6,40.1 66.8,42.4 60.4,42.4 C54,42.4 49.3,40.5 46.3,36.7 C43.3,32.9 41.8,28 41.8,21.9 C41.8,15.1 43.5,9.8 46.8,6 C50.1,2.2 54.7,0.3 60.6,0.3 C65.6,0.3 69.7,1.4 72.9,3.7 C76.1,5.9 78,9.9 78.5,15.6 L67.7,15.6 L67.7,15.5 Z"></path>
          <path d="M111.4,2.1 C114.2,3.3 116.5,5.3 118.3,8 C119.9,10.4 121,13.1 121.5,16.2 C121.8,18 121.9,20.7 121.8,24.1 L92.8,24.1 C93,28.1 94.3,30.9 97,32.5 C98.6,33.5 100.5,34 102.7,34 C105.1,34 107,33.4 108.5,32.2 C109.3,31.5 110,30.6 110.6,29.5 L121.2,29.5 C120.9,31.9 119.6,34.3 117.3,36.7 C113.7,40.6 108.8,42.5 102.3,42.5 C97,42.5 92.3,40.9 88.3,37.6 C84.3,34.3 82.2,29 82.2,21.7 C82.2,14.8 84,9.5 87.7,5.9 C91.4,2.2 96.1,0.4 101.9,0.4 C105.5,0.2 108.6,0.8 111.4,2.1 L111.4,2.1 Z M95.9,11.1 C94.4,12.6 93.5,14.7 93.1,17.3 L111,17.3 C110.8,14.5 109.9,12.4 108.2,11 C106.5,9.6 104.5,8.9 102,8.9 C99.4,8.8 97.3,9.6 95.9,11.1 L95.9,11.1 Z"></path>
          <path d="M135.1,28.4 C135.3,30.2 135.8,31.6 136.5,32.3 C137.8,33.7 140.2,34.4 143.7,34.4 C145.8,34.4 147.4,34.1 148.6,33.5 C149.8,32.9 150.4,32 150.4,30.8 C150.4,29.6 149.9,28.7 148.9,28.1 C147.9,27.5 144.3,26.4 138,25 C133.5,23.9 130.3,22.5 128.5,20.8 C126.7,19.1 125.7,16.8 125.7,13.7 C125.7,10 127.1,6.9 130,4.2 C132.9,1.5 137,0.2 142.2,0.2 C147.2,0.2 151.2,1.2 154.4,3.2 C157.5,5.2 159.3,8.6 159.8,13.5 L149.4,13.5 C149.3,12.2 148.9,11.1 148.3,10.3 C147.2,8.9 145.2,8.2 142.4,8.2 C140.1,8.2 138.5,8.6 137.6,9.3 C136.6,10 136.2,10.8 136.2,11.8 C136.2,13 136.7,13.9 137.7,14.4 C138.7,15 142.3,15.9 148.6,17.3 C152.7,18.3 155.8,19.7 157.9,21.7 C159.9,23.7 161,26.2 161,29.2 C161,33.1 159.5,36.4 156.6,38.8 C153.7,41.3 149.1,42.5 143,42.5 C136.7,42.5 132.1,41.2 129.1,38.5 C126.1,35.9 124.6,32.5 124.6,28.4 L135.1,28.4 L135.1,28.4 Z"></path>
          <path d="M176.7,28.4 C176.9,30.2 177.4,31.6 178.1,32.3 C179.4,33.7 181.8,34.4 185.3,34.4 C187.4,34.4 189,34.1 190.2,33.5 C191.4,32.9 192,32 192,30.8 C192,29.6 191.5,28.7 190.5,28.1 C189.5,27.5 185.9,26.4 179.6,25 C175.1,23.9 171.9,22.5 170.1,20.8 C168.3,19.1 167.3,16.8 167.3,13.7 C167.3,10 168.7,6.9 171.6,4.2 C174.5,1.6 178.6,0.2 183.8,0.2 C188.8,0.2 192.8,1.2 196,3.2 C199.1,5.2 200.9,8.6 201.4,13.5 L191,13.5 C190.9,12.2 190.5,11.1 189.9,10.3 C188.8,8.9 186.8,8.2 184,8.2 C181.7,8.2 180.1,8.6 179.2,9.3 C178.2,10 177.8,10.8 177.8,11.8 C177.8,13 178.3,13.9 179.3,14.4 C180.3,15 183.9,15.9 190.2,17.3 C194.3,18.3 197.4,19.7 199.5,21.7 C201.5,23.7 202.6,26.2 202.6,29.2 C202.6,33.1 201.1,36.4 198.2,38.8 C195.3,41.3 190.7,42.5 184.6,42.5 C178.3,42.5 173.7,41.2 170.7,38.5 C167.7,35.9 166.2,32.5 166.2,28.4 L176.7,28.4 L176.7,28.4 Z"></path>
        </g>
        <g transform="translate(2.000000, 52.000000)" >
          <path d="M10.5,54.1 L0.1,54.1 L0.1,0.3 L10.5,0.3 L10.5,54.1 L10.5,54.1 Z"></path>
          <path d="M30.3,9.6 L19.8,9.6 L19.8,0 L30.3,0 L30.3,9.6 L30.3,9.6 Z M19.8,14.3 L30.3,14.3 L30.3,54.1 L19.8,54.1 L19.8,14.3 L19.8,14.3 Z"></path>
        </g>
        <g transform="translate(40.000000, 55.000000)" >
          <path d="M32.4,13.6 C35,15.8 36.3,19.3 36.3,24.3 L36.3,51.1 L25.6,51.1 L25.6,26.9 C25.6,24.8 25.3,23.2 24.8,22.1 C23.8,20.1 21.9,19 19,19 C15.5,19 13.1,20.5 11.8,23.5 C11.1,25.1 10.8,27.1 10.8,29.6 L10.8,51.1 L0.4,51.1 L0.4,11.4 L10.5,11.4 L10.5,17.2 C11.8,15.2 13.1,13.7 14.3,12.8 C16.4,11.2 19.1,10.4 22.4,10.4 C26.5,10.4 29.8,11.4 32.4,13.6 L32.4,13.6 Z"></path>
          <path d="M41.9,19.1 L41.9,11.7 L47.4,11.7 L47.4,0.6 L57.7,0.6 L57.7,11.7 L64.2,11.7 L64.2,19.1 L57.7,19.1 L57.7,40.1 C57.7,41.7 57.9,42.7 58.3,43.1 C58.7,43.5 60,43.7 62.1,43.7 L63.1,43.7 C63.5,43.7 63.8,43.7 64.1,43.6 L64.1,51.4 L59.2,51.6 C54.3,51.8 50.9,50.9 49.1,49 C47.9,47.8 47.3,46 47.3,43.5 L47.3,19 L41.9,19 L41.9,19.1 Z"></path>
        </g>
        <circle id="Oval" cx="116.5" cy="101.8" r="5.1"></circle>
      </g>
    </g>
  </g>
</svg>
