<svg version="1.1"
  xmlns="http://www.w3.org/2000/svg" xmlns:xlink="http://www.w3.org/1999/xlink"
  width="285.0847px" height="86.4232px" viewBox="0 0 285.0847 86.4232"
  alt="Ruby 5" aria-labelledby="Ruby 5">
  <title>Ruby 5™</title>
  <desc>A podcast with latest news in the Ruby and Rails community</desc>
  <path fill="none" d="M0,5.5879V2.8986c1.0928,0.0252,2.7589,0.0617,4.9994,0.1105l8.0669,0.184
    c1.5965,0,4.0761-0.0499,7.4363-0.1515c4.37-0.1509,6.9045-0.2266,7.6046-0.2266c5.3506,0,9.2505,0.4763,11.702,1.4283
    c2.4504,0.9525,4.3476,2.4997,5.6928,4.6427c1.3441,2.1424,2.0162,4.4738,2.0162,6.9937c0,2.3533-0.6305,4.692-1.8905,7.0167
    s-3.0876,4.2573-5.4819,5.7971c-2.3943,1.5404-5.5088,2.7303-9.3448,3.5706c0.7001,0.9789,2.3539,3.1589,4.9602,6.541
    L46.357,52.7269c3.0203,3.8943,4.7818,6.0653,5.2844,6.513c0.2513,0.1963,0.5026,0.336,0.7551,0.4202
    c0.4196,0.1408,1.343,0.2104,2.769,0.2104v2.6888c-2.1171-0.1958-3.9684-0.2939-5.5559-0.2939
    c-1.6437,0-3.6632,0.0982-6.0574,0.2939c-1.8265-2.0975-4.8872-6.1949-9.1843-12.2938c-2.3886-3.3838-4.4946-6.2089-6.32-8.4753
    c-2.9496-3.7473-5.759-7.1463-8.427-10.1958l0.4207-1.26c1.4552,0.0836,2.5625,0.1257,3.3187,0.1257
    c5.097,0,8.9622-1.2039,11.5954-3.6133c2.6332-2.4083,3.9493-5.5879,3.9493-9.5372c0-3.445-1.1343-6.1825-3.4029-8.2138
    c-2.2686-2.0302-5.6995-3.0461-10.2928-3.0461c-2.8857,0-5.7141,0.4348-8.4876,1.3026c-0.1122,1.5113-0.1963,2.9249-0.2513,4.2404
    c-0.0292,0.3916-0.1268,4.4637-0.2951,12.2164v18.6391c0,3.8062,0.0696,7.5149,0.2109,11.1253
    c0.055,2.6585,0.2435,4.2399,0.5632,4.7436c0.3209,0.5043,0.8437,0.8751,1.5685,1.113c0.7237,0.2373,2.7308,0.3843,6.0182,0.4404
    v2.6888c-3.9773-0.1958-7.6327-0.2939-10.9649-0.2939c-2.6893,0-7.2131,0.0982-13.5712,0.2939v-2.6888
    c3.2873-0.0561,5.2945-0.2031,6.0182-0.4404c0.7248-0.2379,1.2263-0.5666,1.5057-0.9868c0.3343-0.5593,0.543-1.9169,0.6272-4.0727
    c0.0348-0.5873,0.1055-4.5613,0.2098-11.9225V23.0096c0-3.8062-0.0415-7.5283-0.1257-11.1663
    C8.151,9.1843,7.9479,7.6097,7.6259,7.1199s-0.8403-0.8532-1.555-1.0911C5.3573,5.791,3.3333,5.644,0,5.5879z M105.2877,60.1643
    v2.3948c-3.6688-0.1958-6.4423-0.2939-8.3182-0.2939c-2.0734,0-4.1737,0.0982-6.302,0.2939
    c0.1672-2.2686,0.294-4.8171,0.3781-7.6467c-1.6807,1.3447-3.6834,3.1796-6.0081,5.5038c-0.5318,0.5324-1.0502,0.9245-1.5539,1.1764
    c-1.2039,0.6726-2.4066,1.1556-3.6105,1.4496c-1.2027,0.2945-2.6444,0.4415-4.3229,0.4415c-2.2675,0-4.1636-0.3085-5.6883-0.9245
    c-1.5259-0.616-2.8341-1.5545-3.9257-2.815c-0.8179-0.9245-1.4451-2.1216-1.8815-3.5919c-0.4376-1.4709-0.6552-3.2419-0.6552-5.3153
    c0-0.98,0.0348-1.9045,0.1055-2.7729c0.0696-0.8678,0.1043-1.7222,0.1043-2.5625V38.317c0-0.7281-0.0415-2.5631-0.1257-5.5043
    c-0.0561-1.8484-0.1829-3.0523-0.3781-3.6133c-0.1122-0.2794-0.294-0.5038-0.5464-0.6721c-0.4196-0.2794-1.1623-0.4202-2.226-0.4202
    c-1.5416,0-2.76-0.0135-3.6553-0.0421v-2.3948c6.0215-0.6721,10.3904-1.7503,13.1078-3.2352
    c0.4477-0.2519,0.7988-0.3781,1.0502-0.3781c0.1963,0,0.3579,0.0707,0.4836,0.2104c0.1257,0.1402,0.1896,0.3506,0.1896,0.63
    c0,0.2244-0.0146,0.5043-0.0426,0.8403c-0.1122,0.897-0.2098,2.6192-0.294,5.1677c-0.1683,4.678-0.2524,7.815-0.2524,9.4115v8.1925
    c0,3.4175,0.2311,5.819,0.6934,7.2058c0.4622,1.3862,1.3576,2.493,2.6871,3.3187c1.3306,0.8269,2.9743,1.2398,4.9344,1.2398
    c1.3441,0,2.6804-0.2317,4.011-0.6956c1.3295-0.4634,2.5266-1.1304,3.5903-2.0016c0.7854-0.6429,1.5864-1.5102,2.3999-2.6013
    c0.6171-0.8117,1.0232-1.4339,1.2207-1.8669c0.1963-0.4336,0.322-1.0703,0.3781-1.9101c0.1403-2.4644,0.2109-4.9153,0.2109-7.3522
    V38.317c0-0.7281-0.0426-2.5631-0.1268-5.5043c-0.0561-1.8484-0.1818-3.0523-0.3781-3.6133
    c-0.1122-0.2794-0.294-0.5038-0.5464-0.6721c-0.4196-0.2794-1.1623-0.4202-2.226-0.4202c-1.5416,0-2.76-0.0135-3.6553-0.0421
    v-2.3948c6.0047-0.6721,10.3613-1.7503,13.0708-3.2352c0.4477-0.2519,0.7966-0.3781,1.0479-0.3781
    c0.1952,0,0.3557,0.0707,0.4813,0.2104c0.1257,0.1402,0.1885,0.3506,0.1885,0.63c0,0.2244-0.0123,0.5043-0.0381,0.8403
    c-0.0774,0.897-0.1672,2.6753-0.2693,5.336c-0.1593,4.5658-0.239,7.6467-0.239,9.2432v5.7556l0.0841,5.8403
    c0.1055,3.3894,0.175,5.3775,0.2109,5.966c0.0269,1.4008,0.1806,2.4229,0.4589,3.0669c0.1391,0.2519,0.3198,0.4695,0.543,0.6513
    c0.2221,0.1823,0.5565,0.3293,1.0019,0.4409C100.8212,60.0667,102.365,60.1088,105.2877,60.1643z M112.935,62.7275
    c0.3366-3.5269,0.5183-5.7517,0.5464-6.6762c0.1683-6.0726,0.2524-9.6415,0.2524-10.7057V26.6633
    c0-4.6741-0.0707-9.5018-0.2109-14.4839c-0.1122-3.3586-0.267-5.2339-0.4645-5.626c-0.1414-0.2799-0.3658-0.4757-0.6765-0.5873
    c-0.4219-0.1958-2.3662-0.2945-5.8331-0.2945V3.1931c6.3301-0.7842,10.7281-1.7648,13.1931-2.9412
    C120.1054,0.0836,120.3859,0,120.5822,0c0.1952,0,0.3489,0.0628,0.4622,0.189c0.1111,0.1257,0.1672,0.3007,0.1672,0.5245
    c0,0.1952-0.0281,0.4751-0.0841,0.8387l-0.0415,1.3845c-0.1402,5.0073-0.2244,9.273-0.2524,12.7965l-0.0842,6.5455v8.3075
    l5.7983-5.672c0.7562-0.644,2.0027-1.274,3.7395-1.8905c1.7368-0.616,3.5846-0.9245,5.5458-0.9245
    c3.0809,0,5.8117,0.7214,8.1925,2.1637c2.3808,1.4434,4.2085,3.4809,5.483,6.1135c1.2746,2.6327,1.9118,5.5458,1.9118,8.7389
    c0,2.4649-0.3646,4.8037-1.0928,7.0162c-0.7281,2.2131-1.6661,4.1877-2.815,5.9239c-0.8403,1.3172-1.5539,2.2131-2.1418,2.6893
    l-6.1349,4.4115c-2.493,1.8484-4.4396,3.0321-5.8398,3.5499c-1.4013,0.5178-3.1931,0.7775-5.3775,0.7775
    c-1.877,0-3.6138-0.2524-5.2104-0.7562c-1.5965-0.5043-3.2907-1.3867-5.0836-2.6473l-3.4029,3.1931L112.935,62.7275z
     M120.7494,35.6277v15.7556c0,1.4008,0.0774,2.2972,0.2311,2.6888c0.1537,0.3927,0.6238,0.9105,1.4081,1.5545
    c1.1758,0.9811,2.5412,1.7648,4.0963,2.3527c1.555,0.5885,3.1998,0.8824,4.9366,0.8824c4.0615,0,7.185-1.5679,9.3695-4.7055
    c2.1844-3.1364,3.2772-7.0162,3.2772-11.6381c0-3.2772-0.5195-6.0215-1.555-8.2346c-1.0367-2.2125-2.4649-3.8719-4.2847-4.9787
    c-1.8221-1.1062-3.8663-1.6599-6.1349-1.6599c-2.6613,0-5.041,0.7635-7.1424,2.2899
    C122.8508,31.4619,121.4495,33.3591,120.7494,35.6277z M156.9662,85.037l2.1429-6.4703h1.0086
    c0.5318,0.4477,0.9873,0.805,1.3654,1.0715c0.3781,0.2659,0.7831,0.4684,1.2184,0.6092c0.4331,0.1397,1.0715,0.2098,1.9118,0.2098
    c0.8673,0,1.7143-0.189,2.5412-0.5671c0.8258-0.3781,1.5965-0.9733,2.3112-1.7856c0.7136-0.8129,1.5606-2.2131,2.5412-4.2012
    c1.4832-3.0001,2.8127-6.0558,3.9886-9.1675c-0.8987-2.5193-1.978-5.3467-3.2402-8.482l-6.6913-16.5449
    c-1.9915-4.9271-3.6172-8.7008-4.8783-11.3211c-0.5038-1.0316-1.0434-1.7211-1.6167-2.07c-0.5744-0.3478-1.8568-0.6339-3.845-0.8572
    v-2.3948c3.4769,0.1963,6.9124,0.294,10.3063,0.294c3.3087,0,6.4916-0.0976,9.5479-0.294v2.3948
    c-2.8846,0.1941-4.5372,0.3747-4.9568,0.5413c-0.7293,0.2777-1.0928,0.7775-1.0928,1.4995c0,0.4443,0.2379,1.3609,0.7147,2.7488
    c1.0928,3.4506,2.1306,6.3957,3.1134,8.836l2.6501,6.564c1.5988,3.9274,2.9451,7.111,4.0402,9.5512l2.2226-4.9647
    c0.8673-1.964,2.3909-5.6945,4.5731-11.1932c2.1822-5.4981,3.4545-8.8915,3.8191-10.1801c0.1111-0.4477,0.1683-0.8403,0.1683-1.1764
    c0-0.5318-0.2177-0.9452-0.6519-1.2392c-0.4342-0.294-2.1216-0.5812-5.0623-0.8611v-2.521c3.2492,0.1963,6.1192,0.294,8.6133,0.294
    c2.5199,0,5.0129-0.0976,7.4778-0.294l-0.4196,2.521c-1.4282,0.0561-2.5356,0.3641-3.3199,0.9239
    c-0.7843,0.561-1.9679,2.4442-3.5499,5.6513c-1.5831,3.2071-4.5181,9.5159-8.8051,18.9257l-9.7105,22.686
    c-1.5651,3.6699-2.9205,6.2897-4.0682,7.8587c-1.1478,1.5691-2.5199,2.7589-4.1165,3.5723
    c-1.5965,0.8123-3.3468,1.2184-5.2519,1.2184c-0.9234,0-1.7581-0.1049-2.4997-0.3147
    C158.7231,85.8981,157.8907,85.5407,156.9662,85.037z M234.3138,47.2237c0.5049,4.3139,2.5064,7.2972,6.0081,8.9493
    c1.7929,0.8403,3.8651,1.2605,6.2179,1.2605c4.4811,0,7.801-1.4288,9.9574-4.2853c2.1575-2.8571,3.2357-6.0221,3.2357-9.4957
    c0-4.2012-1.2812-7.4504-3.8449-9.747c-2.5625-2.2966-5.6367-3.4455-9.2214-3.4455c-2.6052,0-4.839,0.5043-6.7014,1.513
    c-1.8636,1.0081-3.4523,2.4088-4.7683,4.2012l-6.5545-0.3781l4.5809-32.3931h31.2566v7.3107h-25.5862l-2.5625,16.7216
    c1.4002-1.0642,2.7308-1.8624,3.9908-2.3948c2.2405-0.9245,4.8323-1.3867,7.7729-1.3867c5.5178,0,10.1952,1.7794,14.0323,5.336
    c3.8371,3.5572,5.7568,8.0669,5.7568,13.5285c0,5.6866-1.7581,10.7001-5.2732,15.0415c-3.5151,4.3414-9.1237,6.5118-16.8271,6.5118
    c-4.9018,0-9.2359-1.38-13.0035-4.1383c-3.7675-2.7583-5.8746-6.9954-6.3222-12.7095H234.3138z M269.4558,4.6421V3.4029h6.3294
    v1.2392h-2.4273v6.186h-1.4748v-6.186H269.4558z M279.168,3.4029l1.8968,5.3154l1.9091-5.3154h2.1108v7.4252h-1.3622V4.8367
    l-2.0545,5.9914h-1.188l-2.0729-5.9914v5.9914h-1.3622V3.4029H279.168z"/>
</svg>
