<svg version="1.1"
  xmlns="http://www.w3.org/2000/svg" xmlns:xlink="http://www.w3.org/1999/xlink"
  width="171.0444px" height="148.4224px" viewBox="0 0 171.0444 148.4224"
  alt="Treehouse" aria-labelledby="title desc">
  <title id="title">Treehouse™</title>
  <desc id="desc">Treehouse is an online interactive education platform that offers courses in web, mobile and business development.
</desc>
  <path d="M6.3022,148.4224C1.961,148.4224,0,145.4468,0,141.5259V127.697c0-1.3655,1.0153-2.4505,2.346-2.4505
    c1.2951,0,2.3458,1.085,2.3458,2.4505v2.3804h4.3763c1.1548,0,2.1703,0.8758,2.1703,2.1004c0,1.1557-1.0156,2.0314-2.1703,2.0314
    H4.6917v7.2112c0,1.6808,0.7353,2.5908,2.2753,2.5908c0.7703,0,1.5406-0.2098,2.1707-0.3843
    c1.7859-0.4202,2.9061,0.7002,2.9061,1.995c0,0.7703-0.385,1.5759-1.4707,2.0656C9.3476,148.2474,7.6324,148.4224,6.3022,148.4224
    L6.3022,148.4224z M26.6778,131.863c0-1.1551-0.7352-2.0303-2.1709-2.4157c-0.7001-0.175-1.8555-0.2799-3.0111-0.2799
    c-4.0255,0-6.1614,2.3456-6.1614,5.9871v10.7826c0,1.3302,1.0501,2.381,2.3458,2.381c1.3302,0,2.3454-1.0508,2.3454-2.381v-9.9074
    c0-1.6113,0.6654-2.2407,1.8204-2.276c1.0504-0.0354,1.8207,0.3147,2.6258,0.3147
    C25.9426,134.0684,26.6778,132.8084,26.6778,131.863L26.6778,131.863z M39.9816,137.2196h-6.8264
    c0-2.4157,1.2252-3.991,3.7109-3.991c2.2759,0,3.6058,1.4356,3.5009,3.5708C40.367,137.0799,40.2268,137.2196,39.9816,137.2196
    L39.9816,137.2196z M44.8831,138.0594v-0.7697c0-4.9363-3.2555-8.1223-8.0171-8.1223c-4.5862,0-7.8423,2.9055-8.2626,7.4575
    c-0.0696,1.085-0.105,3.0104,0,4.3764c0.3502,4.3753,3.606,7.421,8.4372,7.421c2.2408,0,4.4815-0.455,5.7769-1.2247
    c0.9453-0.561,1.1905-1.2959,1.1905-1.9607c0-1.2954-1.2252-2.556-3.0811-1.8564c-1.19,0.4555-2.4857,0.7708-3.7459,0.7708
    c-2.3458,0-4.0258-1.1899-4.0258-3.3958v-0.3501h9.3123C44.183,140.4056,44.8831,139.4249,44.8831,138.0594L44.8831,138.0594z
     M59.7617,137.2196h-6.8264c0-2.4157,1.2253-3.991,3.7105-3.991c2.276,0,3.6062,1.4356,3.5013,3.5708
    C60.1471,137.0799,60.0069,137.2196,59.7617,137.2196L59.7617,137.2196z M64.6638,138.0594v-0.7697
    c0-4.9363-3.2561-8.1223-8.018-8.1223c-4.5857,0-7.8418,2.9055-8.262,7.4575c-0.0701,1.085-0.1049,3.0104,0,4.3764
    c0.3501,4.3753,3.6062,7.421,8.4376,7.421c2.2407,0,4.4814-0.455,5.7767-1.2247c0.9453-0.561,1.1899-1.2959,1.1899-1.9607
    c0-1.2954-1.2252-2.556-3.0805-1.8564c-1.1905,0.4555-2.4858,0.7708-3.7464,0.7708c-2.3456,0-4.0258-1.1899-4.0258-3.3958v-0.3501
    h9.3122C63.9637,140.4056,64.6638,139.4249,64.6638,138.0594L64.6638,138.0594z M73.3808,130.5329v-5.1119
    c0-1.3649-1.0502-2.4157-2.3456-2.4157c-1.3307,0-2.3456,1.0508-2.3456,2.4157v20.4808c0,1.3307,1.085,2.4163,2.3804,2.4163
    c1.3307,0,2.3108-1.0856,2.3108-2.4163v-10.6777c0.7355-0.8056,2.1705-1.4704,3.6415-1.4704c1.9248,0,3.1501,1.1905,3.1501,3.3262
    v8.7523c0,1.4003,1.0154,2.4859,2.3114,2.4859c1.3997,0,2.3804-1.0856,2.3804-2.4859v-8.9975c0-5.0065-2.6255-7.6673-7.0721-7.6673
    C75.9368,129.1674,74.1511,129.8327,73.3808,130.5329L73.3808,130.5329z M101.074,137.044c0.069,0.9459,0.069,2.5913,0,3.5013
    c-0.1403,1.9961-1.5052,3.3964-3.7111,3.3964c-2.2065,0-3.5714-1.4003-3.7464-3.3964c-0.0701-0.9099-0.0701-2.5554,0-3.5013
    c0.175-1.9955,1.54-3.3952,3.7464-3.3952C99.5688,133.6488,100.9691,135.0485,101.074,137.044L101.074,137.044z M97.3629,148.4224
    c4.621,0,8.0168-2.9403,8.3669-7.1417c0.1055-1.4003,0.1055-3.5708,0-4.9717c-0.3501-4.2008-3.7459-7.1417-8.3669-7.1417
    c-4.5857,0-8.0522,2.9408-8.4028,7.1417c-0.1049,1.4009-0.1049,3.6062,0,5.0065C89.3108,145.4821,92.7773,148.4224,97.3629,148.4224
    L97.3629,148.4224z M109.8258,131.7581v8.9975c0,4.9363,2.9066,7.6668,7.9473,7.6668c3.747,0,6.3018-1.2247,7.3874-1.9955
    c0.6306-0.3848,0.841-0.8398,0.841-1.6449v-13.094c0-1.3301-1.0514-2.4157-2.3462-2.4157c-1.3655,0-2.3456,1.0856-2.3456,2.4157
    v11.3431c-0.7355,0.4555-1.8912,0.9105-3.4312,0.9105c-1.9955,0-3.361-1.1551-3.361-3.2561v-8.9274
    c0-1.4003-1.0502-2.4859-2.3804-2.4859C110.6668,129.2723,109.8258,130.3579,109.8258,131.7581L109.8258,131.7581z
     M144.4856,142.3315c0-2.7664-1.715-4.4819-5.2157-5.3218l-2.4858-0.5605c-1.5759-0.3501-2.1004-0.8398-2.1004-1.5747
    c0-0.8404,0.7355-1.5058,2.4858-1.5058c0.91,0,2.1352,0.3147,3.0457,0.7702c1.1546,0.5947,2.3456,0.4898,3.0457-0.2805
    c0.7349-0.8398,0.8056-2.2755-0.2104-3.1159c-1.2252-1.0154-3.5007-1.5753-5.706-1.5753c-4.0959,0-7.1428,2.0657-7.1428,5.8469
    c0,3.011,2.2407,4.621,5.1119,5.3565c1.3655,0.3495,1.3302,0.3147,2.5908,0.5947c1.4698,0.3501,2.0309,0.8752,2.0309,1.646
    c0,0.9447-0.8404,1.6101-2.6609,1.6101c-1.646,0-3.0816-0.4555-4.1661-1.1551c-1.1557-0.7349-2.3462-0.5251-3.0463,0.4202
    c-0.6653,0.8752-0.4202,2.2053,0.4202,2.9055c1.2954,1.0856,3.3958,2.0303,6.6873,2.0303
    C141.2301,148.4224,144.4856,146.2524,144.4856,142.3315L144.4856,142.3315z M159.0147,137.2196h-6.8264
    c0-2.4157,1.2247-3.991,3.7111-3.991c2.2755,0,3.6062,1.4356,3.5007,3.5708C159.4001,137.0799,159.2599,137.2196,159.0147,137.2196
    L159.0147,137.2196z M163.9162,138.0594v-0.7697c0-4.9363-3.2561-8.1223-8.0168-8.1223c-4.5863,0-7.8424,2.9055-8.2626,7.4575
    c-0.0701,1.085-0.1044,3.0104,0,4.3764c0.35,4.3753,3.6062,7.421,8.4376,7.421c2.2407,0,4.4814-0.455,5.7768-1.2247
    c0.9447-0.561,1.1899-1.2959,1.1899-1.9607c0-1.2954-1.2253-2.556-3.0799-1.8564c-1.1911,0.4555-2.4864,0.7708-3.7465,0.7708
    c-2.3461,0-4.0264-1.1899-4.0264-3.3958v-0.3501h9.3128C163.2167,140.4056,163.9162,139.4249,163.9162,138.0594L163.9162,138.0594z
     M168.7893,129.8464c-0.0644-0.3033-0.325-0.4881-0.6072-0.4881c-0.3039,0-0.5633,0.1847-0.6289,0.5753l-0.3142,1.9836
    c-0.0433,0.2383,0.0434,0.4772,0.2817,0.52c0.2816,0.0547,0.4664-0.1078,0.4983-0.3461l0.2172-1.6916l0.3906,1.5822
    c0.0867,0.2936,0.26,0.4556,0.5097,0.4556c0.2708,0,0.4333-0.1836,0.5091-0.4556l0.3906-1.5719l0.2161,1.6814
    c0.0337,0.2383,0.2172,0.4008,0.4989,0.3461c0.2383-0.0428,0.3255-0.2817,0.2828-0.52l-0.3147-1.9949
    c-0.065-0.3792-0.3147-0.5639-0.6294-0.5639c-0.2703,0-0.5308,0.1847-0.5958,0.4881l-0.3575,1.5177L168.7893,129.8464
    L168.7893,129.8464z M166.3394,132.037v-1.865h0.585c0.2064,0,0.3797-0.1739,0.3797-0.3803c0-0.2275-0.1733-0.3894-0.3797-0.3894
    h-2.0052c-0.2058,0-0.3791,0.1619-0.3791,0.3894c0,0.2064,0.1733,0.3803,0.3791,0.3803h0.6066v1.865
    c0,0.2166,0.1733,0.4002,0.4116,0.4002C166.1655,132.4372,166.3394,132.2639,166.3394,132.037L166.3394,132.037z M119.4105,19.7003
    c-3.5777-2.0222-9.2906,1.2305-12.7605,7.2661l-6.2825,10.9284c-2.2954,4.5429-1.9813,9.9519,0.9305,14.1283l0.1836,0.2634
    c2.9112,4.1758,6.8138,8.0357,8.1069,9.4126c0.7583,0.8096,1.3387,1.8091,1.6591,2.9517c1.0599,3.7938-1.1546,7.7301-4.9477,8.7917
    c-3.7943,1.061-7.7306-1.1534-8.7922-4.9483c-0.2663-0.9521-0.3256-1.9134-0.2058-2.8354c0.2041-1.5679-0.2988-4.121-2.5474-6.6274
    c-2.2469-2.5064-6.8406,2.2276-8.3259,7.0961l-0.069,0.2235c-1.4852,4.8685-2.4226,9.1172-2.1426,9.526
    c0.1676,0.2435,0.3221,0.4989,0.4647,0.7668c2.0839,3.9215,0.5947,8.79-3.3268,10.8733c-3.9215,2.0845-8.7894,0.5952-10.8738-3.3257
    c-2.0845-3.9215-0.5952-8.79,3.3262-10.8739c0.1762-0.0941,0.3546-0.1802,0.5337-0.2594c0.2999-0.1317,1.1488-2.1785,1.8861-4.5954
    c0.7383-2.418,1.3364-4.3776,1.3364-4.3776c0.0781-0.2571,0.1471-0.512,0.2087-0.7634l3.9688-14.1699l-4.2447,8.7119
    c-0.5029-1.654-1.3342-1.7133-3.1563-0.4094c-1.0981,0.7857-2.9146,2.3336-3.8017,2.9682c-1.6665,1.1922-3.06,3.5075-3.7978,4.9266
    c-0.4344,0.8347-1.0428,1.5958-1.8193,2.2264c-3.0389,2.4653-7.5009,2.0006-9.9662-1.0377
    c-2.4653-3.0383-2.0006-7.5003,1.0377-9.9656c0.8906-0.7229,1.9037-1.1939,2.9534-1.4219
    c1.7851-0.3877,7.8561-4.0965,11.5141-6.7141c0.6545-0.4681,1.2042-0.9117,1.6511-1.3222l9.7666-7.4176l-8.506,4.5965
    c0,0-0.8655-0.0878-1.926,0.0296c-3.1136,0.3461-6.3195,0.7845-6.925,1.5554c-0.3586,0.4556-0.7851,0.8689-1.2788,1.2241
    c-2.8388,2.0445-6.7979,1.4014-8.843-1.4379c-2.0457-2.8393-1.4014-6.799,1.4373-8.8435c1.1717-0.8433,2.5326-1.2292,3.8713-1.1922
    c2.2766,0.0633,8.2677,1.2777,13.2793,0.39l1.2874-0.2286c5.0122-0.8877,11.013-5.2511,13.4047-9.7451
    c0,0,2.341-4.1124,5.2282-9.1853c2.8889-5.0731,2.6751-10.6301-0.4755-12.4113l-5.706-3.2258
    c-2.8781-1.6272-7.5904-1.6302-10.4707-0.0061L36.9583,23.3696c-2.8806,1.6241-5.2374,5.6586-5.2374,8.9651v43.2919
    c0,3.3069,2.3569,7.3412,5.2374,8.9656l39.2967,22.1531c2.8804,1.6243,7.5927,1.6209,10.4707-0.0063l39.1623-22.1405
    c2.8798-1.6278,5.2345-5.665,5.2345-8.9718V32.3347c0-3.3065-2.3547-7.3441-5.2345-8.9713
    C125.888,23.3634,122.9871,21.7234,119.4105,19.7003L119.4105,19.7003z"/>
</svg>
